<svg width="24" height="24" viewBox="0 0 24 24" fill="none" xmlns="http://www.w3.org/2000/svg">
<path d="M7.30086 0.498535H16.9609C20.6409 0.498535 23.6309 3.48854 23.6309 7.16854V16.8285C23.6309 18.5975 22.9281 20.2941 21.6773 21.5449C20.4264 22.7958 18.7299 23.4985 16.9609 23.4985H7.30086C3.62086 23.4985 0.630859 20.5085 0.630859 16.8285V7.16854C0.630859 5.39954 1.33359 3.703 2.58446 2.45213C3.83532 1.20127 5.53187 0.498535 7.30086 0.498535ZM7.07086 2.79854C5.97286 2.79854 4.91984 3.23471 4.14344 4.01111C3.36704 4.78751 2.93086 5.84054 2.93086 6.93853V17.0585C2.93086 19.347 4.78236 21.1985 7.07086 21.1985H17.1909C18.2889 21.1985 19.3419 20.7624 20.1183 19.986C20.8947 19.2096 21.3309 18.1565 21.3309 17.0585V6.93853C21.3309 4.65003 19.4794 2.79854 17.1909 2.79854H7.07086ZM18.1684 4.52354C18.5496 4.52354 18.9152 4.67499 19.1848 4.94457C19.4544 5.21415 19.6059 5.57979 19.6059 5.96104C19.6059 6.34228 19.4544 6.70792 19.1848 6.9775C18.9152 7.24708 18.5496 7.39853 18.1684 7.39853C17.7871 7.39853 17.4215 7.24708 17.1519 6.9775C16.8823 6.70792 16.7309 6.34228 16.7309 5.96104C16.7309 5.57979 16.8823 5.21415 17.1519 4.94457C17.4215 4.67499 17.7871 4.52354 18.1684 4.52354ZM12.1309 6.24854C13.6559 6.24854 15.1184 6.85434 16.1967 7.93267C17.2751 9.01101 17.8809 10.4735 17.8809 11.9985C17.8809 13.5235 17.2751 14.9861 16.1967 16.0644C15.1184 17.1427 13.6559 17.7485 12.1309 17.7485C10.6059 17.7485 9.14333 17.1427 8.065 16.0644C6.98666 14.9861 6.38086 13.5235 6.38086 11.9985C6.38086 10.4735 6.98666 9.01101 8.065 7.93267C9.14333 6.85434 10.6059 6.24854 12.1309 6.24854ZM12.1309 8.54854C11.2159 8.54854 10.3383 8.91202 9.69134 9.55902C9.04434 10.206 8.68086 11.0835 8.68086 11.9985C8.68086 12.9135 9.04434 13.7911 9.69134 14.4381C10.3383 15.0851 11.2159 15.4485 12.1309 15.4485C13.0459 15.4485 13.9234 15.0851 14.5704 14.4381C15.2174 13.7911 15.5809 12.9135 15.5809 11.9985C15.5809 11.0835 15.2174 10.206 14.5704 9.55902C13.9234 8.91202 13.0459 8.54854 12.1309 8.54854Z" fill="white"/>
</svg>
