<svg width="24" height="24" viewBox="0 0 24 24" fill="none" xmlns="http://www.w3.org/2000/svg">
<path d="M20.5636 0.498535C21.2414 0.498535 21.8914 0.76778 22.3706 1.24704C22.8499 1.7263 23.1191 2.37632 23.1191 3.05409V20.943C23.1191 21.6208 22.8499 22.2708 22.3706 22.75C21.8914 23.2293 21.2414 23.4985 20.5636 23.4985H2.6747C1.99692 23.4985 1.3469 23.2293 0.867645 22.75C0.388386 22.2708 0.119141 21.6208 0.119141 20.943V3.05409C0.119141 2.37632 0.388386 1.7263 0.867645 1.24704C1.3469 0.76778 1.99692 0.498535 2.6747 0.498535H20.5636ZM19.9247 20.3041V13.5319C19.9247 12.4271 19.4858 11.3676 18.7046 10.5864C17.9234 9.80518 16.8639 9.36631 15.7591 9.36631C14.673 9.36631 13.408 10.0308 12.7947 11.0274V9.60909H9.2297V20.3041H12.7947V14.0046C12.7947 13.0208 13.5869 12.2158 14.5708 12.2158C15.0453 12.2158 15.5003 12.4042 15.8357 12.7397C16.1712 13.0752 16.3597 13.5302 16.3597 14.0046V20.3041H19.9247ZM5.07692 7.60298C5.64625 7.60298 6.19226 7.37681 6.59484 6.97424C6.99742 6.57166 7.22359 6.02564 7.22359 5.45631C7.22359 4.26798 6.26525 3.29687 5.07692 3.29687C4.5042 3.29687 3.95493 3.52438 3.54996 3.92936C3.14499 4.33433 2.91747 4.88359 2.91747 5.45631C2.91747 6.64465 3.88859 7.60298 5.07692 7.60298ZM6.85303 20.3041V9.60909H3.31359V20.3041H6.85303Z" fill="white"/>
</svg>
