<svg width="33" height="24" viewBox="0 0 33 24" fill="none" xmlns="http://www.w3.org/2000/svg">
<path d="M13.2859 16.9271L21.8123 11.9985L13.2859 7.06996V16.9271ZM32.2773 4.06354C32.4909 4.83568 32.6388 5.87068 32.7374 7.18496C32.8523 8.49925 32.9016 9.63282 32.9016 10.6185L33.0002 11.9985C33.0002 15.5964 32.7373 18.2414 32.2773 19.9335C31.8666 21.4121 30.9138 22.365 29.4352 22.7757C28.6631 22.9893 27.2502 23.1371 25.0816 23.2357C22.9459 23.3507 20.9909 23.4 19.1838 23.4L16.5716 23.4985C9.68807 23.4985 5.40021 23.2357 3.70807 22.7757C2.22949 22.365 1.27664 21.4121 0.865924 19.9335C0.652352 19.1614 0.504495 18.1264 0.405924 16.8121C0.290924 15.4978 0.241638 14.3643 0.241638 13.3785L0.143066 11.9985C0.143066 8.40068 0.405924 5.75568 0.865924 4.06354C1.27664 2.58496 2.22949 1.63211 3.70807 1.22139C4.48021 1.00782 5.89307 0.859963 8.06164 0.761392C10.1974 0.646392 12.1524 0.597106 13.9595 0.597106L16.5716 0.498535C23.4552 0.498535 27.7431 0.761392 29.4352 1.22139C30.9138 1.63211 31.8666 2.58496 32.2773 4.06354Z" fill="white"/>
</svg>
