<?xml version="1.0" encoding="UTF-8"?>
<!DOCTYPE svg PUBLIC "-//W3C//DTD SVG 1.1//EN" "http://www.w3.org/Graphics/SVG/1.1/DTD/svg11.dtd">
<!-- Creator: CorelDRAW -->
<svg xmlns="http://www.w3.org/2000/svg" xml:space="preserve" width="2.37102in" height="3.2935in" version="1.1" style="shape-rendering:geometricPrecision; text-rendering:geometricPrecision; image-rendering:optimizeQuality; fill-rule:evenodd; clip-rule:evenodd"
viewBox="0 0 2371.02 3293.5"
 xmlns:xlink="http://www.w3.org/1999/xlink"
 xmlns:xodm="http://www.corel.com/coreldraw/odm/2003">
 <defs>
  <style type="text/css">
   <![CDATA[
    .fil0 {fill:url(#id0);fill-rule:nonzero}
   ]]>
  </style>
  <linearGradient id="id0" gradientUnits="userSpaceOnUse" x1="1185.52" y1="3293.5" x2="1185.52" y2="-0.02">
   <stop offset="0" style="stop-opacity:1; stop-color:#57DED9"/>
   <stop offset="1" style="stop-opacity:1; stop-color:#CF74ED"/>
  </linearGradient>
 </defs>
 <g id="Layer_x0020_1">
  <metadata id="CorelCorpID_0Corel-Layer"/>
  <path id="_22WW" class="fil0" d="M2231.28 593.55l-54.59 -447.59c-14.66,-120.09 -150.16,-186.68 -252.67,-118.75l-1481 983.87c-0.36,0.22 -0.69,0.44 -1.04,0.64 -33.47,21.67 -11.52,74.29 27.84,67.79l1665.34 -274.8c66.3,-46.87 111.54,-129.94 96.11,-211.15zm-339.22 1394.11l-1674.05 -599.11c-115.84,-41.27 -231.4,55.91 -216.74,175.99l55.92 458.54c10.64,87.34 68.43,152.32 144.04,181.87l1677.96 -137.67c42.55,-3.5 53.62,-63.13 14,-79.17 -0.35,-0.17 -0.74,-0.29 -1.13,-0.45zm-1643.13 498.71c-8.61,1.57 -16.85,4.94 -23.71,10.37 -60.41,47.93 -100.1,126.39 -85.48,203.19l54.56 447.6c14.65,120.08 150.19,186.66 252.7,118.75l1481.01 -983.87c0.46,-0.28 0.94,-0.61 1.39,-0.89 49.41,-32.11 16,-109.71 -41.95,-98.97l-1638.53 303.81zm2120.82 -757.44l-55.92 -458.52c-10.67,-87.31 -68.43,-152.29 -144.04,-181.85l-1674.54 118.59c-53.2,3.79 -67.07,78.08 -17.66,98.13 0.45,0.19 0.91,0.39 1.36,0.55l1674.05 599.11c115.83,41.28 231.39,-55.91 216.74,-176z"/>
 </g>
</svg>
