<?xml version="1.0" encoding="UTF-8"?>
<!DOCTYPE svg PUBLIC "-//W3C//DTD SVG 1.1//EN" "http://www.w3.org/Graphics/SVG/1.1/DTD/svg11.dtd">
<!-- Creator: CorelDRAW -->
<svg xmlns="http://www.w3.org/2000/svg" xml:space="preserve" width="5.51859in" height="1.82248in" version="1.1" style="shape-rendering:geometricPrecision; text-rendering:geometricPrecision; image-rendering:optimizeQuality; fill-rule:evenodd; clip-rule:evenodd"
viewBox="0 0 5518.58 1822.48"
 xmlns:xlink="http://www.w3.org/1999/xlink"
 xmlns:xodm="http://www.corel.com/coreldraw/odm/2003">
 <defs>
  <style type="text/css">
   <![CDATA[
    .fil0 {fill:url(#id0);fill-rule:nonzero}
    .fil1 {fill:url(#id1);fill-rule:nonzero}
   ]]>
  </style>
  <linearGradient id="id0" gradientUnits="userSpaceOnUse" x1="656.01" y1="1822.48" x2="656.01" y2="-0.01">
   <stop offset="0" style="stop-opacity:1; stop-color:#57DED9"/>
   <stop offset="1" style="stop-opacity:1; stop-color:#CF74ED"/>
  </linearGradient>
  <linearGradient id="id1" gradientUnits="userSpaceOnUse" xlink:href="#id0" x1="3577.7" y1="1255.87" x2="3577.7" y2="560.29">
  </linearGradient>
 </defs>
 <g id="Layer_x0020_1">
  <metadata id="CorelCorpID_0Corel-Layer"/>
  <path id="_21WF" class="fil0" d="M1234.69 328.44l-30.2 -247.68c-8.11,-66.45 -83.09,-103.3 -139.82,-65.71l-819.52 544.43c-0.2,0.13 -0.38,0.24 -0.57,0.35 -18.52,11.99 -6.37,41.11 15.41,37.51l921.53 -152.06c36.69,-25.93 61.72,-71.9 53.19,-116.84zm-187.71 771.44l-926.35 -331.52c-64.1,-22.84 -128.05,30.94 -119.94,97.39l30.94 253.73c5.89,48.33 37.86,84.29 79.7,100.64l928.51 -76.18c23.55,-1.94 29.67,-34.94 7.74,-43.81 -0.19,-0.09 -0.41,-0.16 -0.62,-0.25zm-909.23 275.96c-4.76,0.87 -9.33,2.73 -13.12,5.74 -33.43,26.52 -55.39,69.94 -47.3,112.44l30.19 247.68c8.11,66.44 83.11,103.29 139.84,65.71l819.52 -544.43c0.26,-0.15 0.53,-0.34 0.78,-0.5 27.34,-17.77 8.85,-60.71 -23.21,-54.76l-906.69 168.12zm1173.57 -419.14l-30.94 -253.72c-5.91,-48.32 -37.87,-84.27 -79.7,-100.63l-926.62 65.63c-29.44,2.09 -37.11,43.2 -9.77,54.3 0.25,0.1 0.5,0.21 0.76,0.3l926.35 331.52c64.09,22.84 128.04,-30.94 119.93,-97.39z"/>
  <path id="_21WT" class="fil1" d="M2093.05 873.12c21.5,21.52 37.49,45.85 47.96,73.05 10.45,27.2 15.38,53.93 14.78,80.21 -0.59,26.31 -6.14,52.29 -16.57,77.99 -10.46,25.7 -24.66,48.12 -42.57,67.21 -17.94,19.15 -39.91,34.69 -65.89,46.62 -25.98,11.95 -53.65,17.91 -82.92,17.91l-228.11 0c-35.4,0 -64.08,-28.69 -64.08,-64.07 0,-35.4 28.69,-64.08 64.08,-64.08l222.75 0c21.51,0 39.43,-5.83 53.78,-17.5 14.35,-11.63 23.14,-25.66 26.43,-42.11 3.27,-16.44 3.15,-32.99 -0.45,-49.77 -3.57,-16.71 -12.55,-30.91 -26.9,-42.56 -14.31,-11.65 -31.96,-17.48 -52.87,-17.48 -57.37,0 -98.6,0.31 -123.7,0.89 -48.41,0 -89.33,-15.37 -122.8,-46.15 -33.48,-30.78 -52.59,-67.38 -57.35,-109.81 -7.2,-54.98 7.3,-102.47 43.44,-142.5 36.17,-40.04 80.82,-60.06 134.02,-60.06l228.57 0c35.65,0 64.53,28.89 64.53,64.54 0,35.64 -28.88,64.53 -64.53,64.53l-232.17 0c-19.13,1.2 -32.71,9.86 -40.78,25.98 -8.07,16.14 -8.21,32.14 -0.44,47.96 7.77,15.85 21.51,24.66 41.23,26.43l129.98 0c58.56,0 108.74,20.94 150.58,62.76zm3033.16 -163.13l0 169.41 177.46 0c23.91,0 44.08,-8.07 60.52,-24.21 16.41,-16.12 24.64,-35.85 24.64,-59.15 0,-23.32 -8.37,-43.63 -25.09,-60.95 -16.14,-16.73 -37.06,-25.11 -62.76,-25.11l-174.77 0zm226.78 347.79c0,-13.15 -4.8,-24.5 -14.35,-34.07 -9.57,-9.56 -21.21,-14.36 -34.97,-14.36l-177.46 0 0 161.82c0,35.4 -28.69,64.09 -64.09,64.09l-1.81 0c-35.4,0 -64.09,-28.69 -64.09,-64.09l0 -526.16c0,-35.39 28.69,-64.08 64.09,-64.08l243.35 0c59.75,0 110.56,20.92 152.4,62.74 44.2,46.6 64.96,99.95 62.29,159.99 -2.69,60.04 -26.16,110.4 -70.36,151.04 22.1,30.46 33.14,64.84 33.14,103.08l0 113.39c0,35.4 -28.69,64.09 -64.07,64.09 -35.4,0 -64.09,-28.69 -64.09,-64.09l0 -113.39zm-642.69 -48.42c0.59,-7.16 0.91,-41.23 0.91,-102.17 0,-60.95 -0.32,-94.42 -0.91,-100.4 -5.37,-32.85 -20.92,-60.65 -46.61,-83.35 -26.89,-23.31 -64.99,-34.96 -114.28,-34.96 -49.3,0 -87.41,11.65 -114.28,34.96 -25.7,22.7 -40.95,50.5 -45.72,83.35 -1.2,5.98 -1.77,39.44 -1.77,100.4 0,60.94 0.57,95.01 1.77,102.17 4.78,33.48 20.02,61.41 45.72,83.82 25.68,22.41 55.87,33.59 90.52,33.59l47.51 0c34.65,0 64.82,-11.19 90.53,-33.59 25.69,-22.42 41.24,-50.34 46.61,-83.82zm-137.14 -449.06c68.13,0 128.33,23.46 180.62,70.37 52.28,46.92 80.8,105.93 85.6,177.02 0.57,4.8 0.89,37.06 0.89,96.8l0 30.03 0 29.13c0,4.8 -0.14,13.31 -0.44,25.56 -0.33,12.24 -0.92,21.06 -1.79,26.43 -0.9,5.39 -1.95,13.3 -3.13,23.75 -1.2,10.47 -3.01,18.83 -5.39,25.11 -2.4,6.27 -5.1,13.89 -8.07,22.85 -3.01,8.96 -6.74,17.34 -11.21,25.11 -4.47,7.76 -9.41,15.82 -14.8,24.19 -23.3,36.46 -54.52,65.44 -93.67,86.96 -39.14,21.51 -82,32.27 -128.62,32.27l-47.51 0c-46.01,0 -88.58,-10.76 -127.72,-32.27 -39.14,-21.51 -70.67,-50.5 -94.56,-86.96 -7.17,-10.17 -13.3,-20 -18.37,-29.57 -5.1,-9.56 -9.27,-20.31 -12.56,-32.27 -3.3,-11.94 -5.98,-21.2 -8.07,-27.79 -2.08,-6.56 -3.44,-17.04 -4.03,-31.37 -0.59,-14.33 -1.06,-23.3 -1.35,-26.88 -0.3,-3.6 -0.44,-14.03 -0.44,-31.39l0 -28.67 0 -111.15c0,-43.02 11.48,-84.09 34.5,-123.24 23.01,-39.12 55.28,-71.26 96.81,-96.35 41.52,-25.11 86.78,-37.66 135.78,-37.66l47.51 0zm-535.09 674.95c-35.65,0 -64.54,-28.88 -64.54,-64.54l0 -233.06 -275.16 0 0 233.06c0,35.65 -28.89,64.54 -64.53,64.54l-0.83 0c-35.66,0 -64.58,-28.94 -64.53,-64.62l0.72 -525.26c0.06,-35.59 28.92,-64.44 64.53,-64.44l0.11 0c35.65,0 64.53,28.9 64.53,64.54l0 164.03 275.16 0 0 -164.03c0,-35.63 28.89,-64.54 64.54,-64.54 35.65,0 64.53,28.9 64.53,64.54l0 525.26c0,35.65 -28.89,64.54 -64.53,64.54zm-866.74 0c-35.65,0 -64.53,-28.88 -64.53,-64.54l0 -460.72 -141.63 0c-35.63,0 -64.53,-28.89 -64.53,-64.53 0,-35.63 28.9,-64.54 64.53,-64.54l411.43 0c35.63,0 64.53,28.9 64.53,64.54 0,35.64 -28.91,64.53 -64.53,64.53l-140.74 0 0 460.72c0,35.65 -28.88,64.54 -64.53,64.54zm-380.04 -63.65c0,35.65 -28.89,64.53 -64.53,64.53l-153.28 0c-68.13,0 -126.09,-15.53 -173.89,-46.6 -44.22,-28.07 -76.49,-66.63 -96.8,-115.63 -2.39,-5.39 -4.47,-11.04 -6.26,-17.02 -1.81,-6 -3.31,-11.22 -4.49,-15.71 -1.2,-4.47 -2.24,-10.13 -3.15,-17.02 -0.88,-6.85 -1.78,-12.24 -2.68,-16.13 -0.88,-3.9 -1.49,-9.56 -1.79,-17.03 -0.32,-7.47 -0.59,-12.85 -0.89,-16.15 -0.3,-3.28 -0.61,-9.09 -0.89,-17.49 -0.3,-8.34 -0.45,-13.73 -0.45,-16.13l0 -17.93 0 -16.13 0 -29.13 0 -31.81c0,-5.37 0.59,-14.81 1.79,-28.24 1.18,-13.44 2.83,-24.34 4.92,-32.71 2.09,-8.36 5.23,-18.5 9.43,-30.46 4.17,-11.97 9.25,-23.32 15.23,-34.07 25.09,-47.8 62.42,-83.95 112.04,-108.47 43.61,-21.51 92.91,-32.27 147.89,-32.27l153.28 0c35.65,0 64.53,28.91 64.53,64.55 0,35.63 -28.89,64.53 -64.53,64.53l-153.28 0c-50.81,0 -90.39,12.85 -118.76,38.53 -28.4,25.7 -42.89,57.98 -43.48,96.8l269.35 0c35.4,0 64.08,28.7 64.08,64.1 0,35.38 -28.69,64.09 -64.08,64.09l-269.35 0c1.2,38.85 15.7,70.97 43.48,96.35 27.79,25.41 67.37,38.1 118.76,38.1l153.28 0c35.65,0 64.53,28.89 64.53,64.53z"/>
 </g>
</svg>
