<svg width="155" height="65" viewBox="0 0 155 65" fill="none" xmlns="http://www.w3.org/2000/svg">
<path d="M44.0364 11.7143L42.959 2.88063C42.6696 0.510531 39.9954 -0.803689 37.9723 0.536977L8.74328 19.9546C8.73617 19.959 8.72966 19.9633 8.72275 19.9673C8.06219 20.3949 8.4954 21.4334 9.2722 21.3052L42.1393 15.8817C43.4478 14.9567 44.3407 13.3172 44.0362 11.7145L44.0364 11.7143ZM37.3415 39.2284L4.30248 27.4044C2.01627 26.5899 -0.264423 28.5078 0.0249071 30.8777L1.12854 39.9274C1.33853 41.6512 2.47908 42.9336 3.97132 43.5168L37.0875 40.7998C37.9273 40.7307 38.1458 39.5538 37.3638 39.2373C37.3569 39.2339 37.3492 39.2316 37.3415 39.2284ZM4.91272 49.0709C4.74279 49.1019 4.58017 49.1684 4.44478 49.2756C3.25253 50.2215 2.46921 51.77 2.75775 53.2857L3.83455 62.1196C4.12368 64.4895 6.79869 65.8035 8.82183 64.4632L38.051 45.0456C38.0601 45.0401 38.0696 45.0335 38.0785 45.028C39.0536 44.3943 38.3942 42.8628 37.2505 43.0747L4.91252 49.0707L4.91272 49.0709ZM46.7692 34.1221L45.6656 25.0728C45.455 23.3496 44.315 22.0672 42.8228 21.4838L9.77409 23.8243C8.72414 23.8991 8.4504 25.3652 9.42555 25.761C9.43443 25.7647 9.44351 25.7686 9.45239 25.7718L42.4914 37.5958C44.7774 38.4105 47.0581 36.4924 46.769 34.1223L46.7692 34.1221Z" fill="url(#paint0_linear_1207_1817)"/>
<path d="M67.3288 44.4425C66.024 44.4425 64.7702 44.2383 63.5676 43.8298C62.3649 43.4213 61.3154 42.837 60.419 42.0768C59.5227 41.3053 58.8816 40.3919 58.4959 39.3368L61.8146 38.0944C62.0075 38.639 62.3762 39.1269 62.9208 39.558C63.4768 39.9778 64.1349 40.3068 64.895 40.5451C65.6666 40.7834 66.4778 40.9025 67.3288 40.9025C68.2365 40.9025 69.0874 40.755 69.8817 40.46C70.6872 40.165 71.334 39.7566 71.8218 39.2346C72.3211 38.7127 72.5707 38.1 72.5707 37.3966C72.5707 36.6704 72.3097 36.0748 71.7878 35.6096C71.2772 35.1444 70.6191 34.7756 69.8136 34.5033C69.0194 34.231 68.1911 34.0268 67.3288 33.8906C65.6609 33.6183 64.1632 33.2212 62.8357 32.6993C61.5196 32.1774 60.4757 31.4456 59.7042 30.5038C58.944 29.5621 58.5639 28.3367 58.5639 26.8277C58.5639 25.4094 58.9667 24.1727 59.7723 23.1175C60.5892 22.0623 61.6614 21.2454 62.9889 20.6668C64.3277 20.0768 65.7744 19.7818 67.3288 19.7818C68.6109 19.7818 69.8476 19.986 71.039 20.3945C72.2416 20.7916 73.2968 21.3759 74.2045 22.1474C75.1235 22.9076 75.7816 23.8323 76.1787 24.9216L72.826 26.1299C72.6331 25.574 72.2643 25.0918 71.7197 24.6833C71.1751 24.2635 70.517 23.9345 69.7455 23.6962C68.9853 23.4579 68.1797 23.3388 67.3288 23.3388C66.4211 23.3274 65.5701 23.4749 64.7759 23.7813C63.993 24.0763 63.352 24.4847 62.8528 25.0067C62.3535 25.5286 62.1039 26.1356 62.1039 26.8277C62.1039 27.6787 62.3365 28.3254 62.8017 28.7679C63.2669 29.2104 63.8909 29.5394 64.6738 29.755C65.468 29.9592 66.353 30.1464 67.3288 30.3166C68.8945 30.5662 70.3412 30.9804 71.6687 31.559C73.0075 32.1377 74.0797 32.9092 74.8853 33.8736C75.7022 34.8267 76.1107 36.001 76.1107 37.3966C76.1107 38.8035 75.7022 40.0402 74.8853 41.1067C74.0797 42.1619 73.0075 42.9845 71.6687 43.5745C70.3412 44.1532 68.8945 44.4425 67.3288 44.4425ZM86.2862 44.4425C84.7205 44.4425 83.2909 44.0397 81.9974 43.2341C80.7153 42.4286 79.6885 41.3507 78.9169 40.0005C78.1568 38.639 77.7767 37.1356 77.7767 35.4904C77.7767 34.2424 77.9979 33.0794 78.4404 32.0015C78.8829 30.9123 79.4899 29.9592 80.2615 29.1423C81.0443 28.314 81.952 27.6673 82.9845 27.2021C84.017 26.7369 85.1176 26.5043 86.2862 26.5043C87.591 26.5043 88.788 26.7766 89.8773 27.3213C90.9665 27.8545 91.8969 28.5977 92.6684 29.5508C93.4399 30.4925 94.0072 31.5817 94.3703 32.8184C94.7334 34.0438 94.8412 35.3486 94.6937 36.7328H81.5719C81.7194 37.5157 82.0031 38.2248 82.4229 38.8602C82.854 39.4843 83.3987 39.9778 84.0567 40.3409C84.7261 40.704 85.4693 40.8912 86.2862 40.9025C87.1485 40.9025 87.9314 40.6869 88.6349 40.2558C89.3497 39.8246 89.934 39.229 90.3878 38.4688L93.9789 39.3027C93.2981 40.8118 92.2713 42.0485 90.8984 43.0129C89.5255 43.966 87.9881 44.4425 86.2862 44.4425ZM81.4528 34.0268H91.1197C91.0062 33.2099 90.7169 32.4724 90.2517 31.8143C89.7978 31.1449 89.2249 30.6173 88.5328 30.2315C87.852 29.8344 87.1031 29.6359 86.2862 29.6359C85.4807 29.6359 84.7318 29.8287 84.0397 30.2145C83.3589 30.6003 82.7916 31.1279 82.3378 31.7973C81.8953 32.4554 81.6003 33.1985 81.4528 34.0268ZM105.718 30.5209H102.144L102.127 44H98.5868L98.6038 30.5209H95.8978V26.9809H98.6038L98.5868 21.6369H102.127L102.144 26.9809H105.718V30.5209ZM123.401 33.329V44H119.861V34.197C119.861 33.4368 119.674 32.7447 119.3 32.1207C118.937 31.4966 118.443 31.0031 117.819 30.64C117.206 30.2656 116.514 30.0784 115.743 30.0784C114.994 30.0784 114.307 30.2656 113.683 30.64C113.059 31.0031 112.56 31.4966 112.186 32.1207C111.811 32.7447 111.624 33.4368 111.624 34.197V44H108.084V18.4713H111.624V28.7849C112.214 28.0814 112.94 27.5255 113.802 27.117C114.665 26.7086 115.595 26.5043 116.594 26.5043C117.853 26.5043 118.999 26.8107 120.031 27.4234C121.064 28.0361 121.881 28.8587 122.482 29.8911C123.095 30.9236 123.401 32.0696 123.401 33.329ZM133.274 44.4425C131.708 44.4425 130.278 44.0397 128.985 43.2341C127.703 42.4286 126.676 41.3507 125.904 40.0005C125.144 38.639 124.764 37.1356 124.764 35.4904C124.764 34.2424 124.985 33.0794 125.428 32.0015C125.87 30.9123 126.477 29.9592 127.249 29.1423C128.032 28.314 128.939 27.6673 129.972 27.2021C131.004 26.7369 132.105 26.5043 133.274 26.5043C134.839 26.5043 136.263 26.9071 137.545 27.7127C138.839 28.5183 139.866 29.6018 140.626 30.9633C141.397 32.3249 141.783 33.8339 141.783 35.4904C141.783 36.7272 141.562 37.8845 141.119 38.9623C140.677 40.0402 140.064 40.9933 139.281 41.8216C138.51 42.6385 137.608 43.2795 136.575 43.7447C135.554 44.2099 134.454 44.4425 133.274 44.4425ZM133.274 40.9025C134.215 40.9025 135.061 40.6529 135.809 40.1537C136.558 39.6544 137.148 38.9964 137.579 38.1795C138.022 37.3512 138.243 36.4549 138.243 35.4904C138.243 34.5033 138.016 33.5956 137.562 32.7674C137.12 31.9391 136.524 31.281 135.775 30.7932C135.027 30.2939 134.193 30.0443 133.274 30.0443C132.343 30.0443 131.498 30.2939 130.738 30.7932C129.989 31.2924 129.393 31.9561 128.951 32.7844C128.52 33.6127 128.304 34.5147 128.304 35.4904C128.304 36.5002 128.531 37.4136 128.985 38.2305C129.439 39.0474 130.04 39.6998 130.789 40.1877C131.549 40.6643 132.377 40.9025 133.274 40.9025ZM143.852 44V26.9809H147.392V28.7849C147.982 28.0814 148.708 27.5255 149.571 27.117C150.433 26.7086 151.363 26.5043 152.362 26.5043C152.997 26.5043 153.627 26.5894 154.251 26.7596L152.838 30.3336C152.396 30.1635 151.953 30.0784 151.511 30.0784C150.762 30.0784 150.075 30.2656 149.451 30.64C148.827 31.0031 148.328 31.4966 147.954 32.1207C147.579 32.7447 147.392 33.4368 147.392 34.197V44H143.852Z" fill="white"/>
<defs>
<linearGradient id="paint0_linear_1207_1817" x1="23.3973" y1="65.0004" x2="23.3973" y2="-0.000433928" gradientUnits="userSpaceOnUse">
<stop stop-color="#57DED9"/>
<stop offset="1" stop-color="#CF74ED"/>
</linearGradient>
</defs>
</svg>
